<?xml version="1.0" encoding="UTF-8" standalone="no"?>
<svg
   xmlns:dc="http://purl.org/dc/elements/1.1/"
   xmlns:cc="http://creativecommons.org/ns#"
   xmlns:rdf="http://www.w3.org/1999/02/22-rdf-syntax-ns#"
   xmlns:svg="http://www.w3.org/2000/svg"
   xmlns="http://www.w3.org/2000/svg"
   xmlns:sodipodi="http://sodipodi.sourceforge.net/DTD/sodipodi-0.dtd"
   xmlns:inkscape="http://www.inkscape.org/namespaces/inkscape"
   sodipodi:docname="favicon.svg"
   inkscape:version="1.0beta1 (32d4812, 2019-09-19)"
   id="svg16"
   version="1.1"
   viewBox="0 0 135.46666 135.46667"
   height="512"
   width="512">
  <defs
     id="defs10" />
  <sodipodi:namedview
     inkscape:window-maximized="0"
     inkscape:window-y="0"
     inkscape:window-x="0"
     inkscape:window-height="800"
     inkscape:window-width="1280"
     inkscape:pagecheckerboard="true"
     inkscape:showpageshadow="false"
     units="px"
     showgrid="false"
     inkscape:document-rotation="0"
     inkscape:current-layer="layer1"
     inkscape:document-units="px"
     inkscape:cy="764.68014"
     inkscape:cx="70.519255"
     inkscape:zoom="0.19544071"
     inkscape:pageshadow="2"
     inkscape:pageopacity="0.0"
     borderopacity="1.0"
     bordercolor="#666666"
     pagecolor="#ffffff"
     id="base" />
  <metadata
     id="metadata13">
    <rdf:RDF>
      <cc:Work
         rdf:about="">
        <dc:format>image/svg+xml</dc:format>
        <dc:type
           rdf:resource="http://purl.org/dc/dcmitype/StillImage" />
        <dc:title></dc:title>
      </cc:Work>
    </rdf:RDF>
  </metadata>
  <g
     id="layer1"
     inkscape:groupmode="layer"
     inkscape:label="Livello 1">
    <rect
       y="0"
       x="0"
       height="135.46666"
       width="135.46666"
       id="rect22"
       style="fill:#000000;stroke-width:0.264583" />
    <circle
       r="67.73333"
       cy="67.73333"
       cx="67.73333"
       id="path24"
       style="fill:#ffffff;stroke-width:0.280248" />
    <g
       style="font-size:50.8px;line-height:1.25;font-family:Arial;-inkscape-font-specification:Arial;fill:#000000;stroke-width:0.264583"
       id="text20"
       aria-label="SVG">
      <path
         inkscape:connector-curvature="0"
         id="path30"
         style="fill:#000000;stroke-width:0.264583"
         d="m 105.04612,73.732872 v -4.266406 l 15.40371,-0.02481 v 13.49375 q -3.54707,2.827734 -7.31738,4.266406 -3.77032,1.413867 -7.73907,1.413867 -5.35781,0 -9.748239,-2.282031 -4.365625,-2.306836 -6.598046,-6.647656 -2.232422,-4.34082 -2.232422,-9.698633 0,-5.308203 2.207617,-9.89707 2.232422,-4.613672 6.399609,-6.846093 4.167188,-2.232422 9.599411,-2.232422 3.94395,0 7.11895,1.289844 3.1998,1.265039 5.01055,3.54707 1.81074,2.282031 2.75332,5.953125 l -4.34082,1.190625 q -0.81856,-2.778125 -2.03399,-4.365625 -1.21543,-1.5875 -3.47266,-2.530078 -2.25722,-0.967383 -5.01054,-0.967383 -3.29903,0 -5.70508,1.016992 -2.406055,0.992188 -3.894336,2.629297 -1.463477,1.637109 -2.282031,3.59668 -1.389063,3.373437 -1.389063,7.317382 0,4.861719 1.661914,8.135938 1.686719,3.274218 4.886524,4.861718 3.199802,1.5875 6.796482,1.5875 3.12539,0 6.10195,-1.190625 2.97657,-1.215429 4.51446,-2.579687 v -6.77168 z" />
      <path
         inkscape:connector-curvature="0"
         id="path28"
         style="fill:#000000;stroke-width:0.264583"
         d="M 64.490455,87.995567 50.401392,51.631896 h 5.208985 l 9.450585,26.416992 q 1.141016,3.175 1.909961,5.953125 0.84336,-2.976563 1.959571,-5.953125 L 78.75315,51.631896 h 4.911328 L 69.426587,87.995567 Z" />
      <path
         inkscape:connector-curvature="0"
         id="path26"
         style="fill:#000000;stroke-width:0.264583"
         d="m 18.52737,76.31256 4.539257,-0.396875 q 0.322461,2.728515 1.488282,4.489648 1.190625,1.736328 3.671093,2.827734 2.480469,1.066602 5.581055,1.066602 2.75332,0 4.861719,-0.818555 2.108398,-0.818554 3.12539,-2.232422 1.041797,-1.438671 1.041797,-3.12539 0,-1.711524 -0.992187,-2.976563 -0.992188,-1.289843 -3.274219,-2.158007 -1.463477,-0.570508 -6.474023,-1.761133 -5.010547,-1.21543 -7.019727,-2.282031 -2.604492,-1.364258 -3.894336,-3.373438 -1.265039,-2.033984 -1.265039,-4.539258 0,-2.75332 1.562695,-5.13457 1.562696,-2.406054 4.564063,-3.646289 3.001367,-1.240234 6.672461,-1.240234 4.043164,0 7.118945,1.314648 3.100586,1.289844 4.7625,3.819922 1.661914,2.530078 1.785937,5.729883 l -4.613672,0.347265 q -0.37207,-3.447851 -2.530078,-5.208984 -2.133203,-1.761133 -6.325195,-1.761133 -4.365625,0 -6.374804,1.612305 -1.984375,1.5875 -1.984375,3.844726 0,1.959571 1.413867,3.22461 1.389062,1.265039 7.242968,2.604492 5.878711,1.314648 8.061524,2.306836 3.175,1.463476 4.688086,3.720703 1.513086,2.232422 1.513086,5.159375 0,2.902148 -1.661915,5.481836 -1.661914,2.554882 -4.787304,3.993554 -3.100586,1.413867 -6.994922,1.413867 -4.936133,0 -8.284765,-1.438671 -3.323828,-1.438672 -5.233789,-4.316016 -1.885157,-2.902148 -1.984375,-6.548437 z" />
    </g>
  </g>
</svg>
