<?xml version="1.0" encoding="UTF-8"?>
<svg width="512" height="512" version="1.1" viewBox="0 0 512 512" xmlns="http://www.w3.org/2000/svg" xmlns:cc="http://creativecommons.org/ns#" xmlns:dc="http://purl.org/dc/elements/1.1/" xmlns:rdf="http://www.w3.org/1999/02/22-rdf-syntax-ns#">
 <metadata>
  <rdf:RDF>
   <cc:Work rdf:about="">
    <dc:format>image/svg+xml</dc:format>
    <dc:type rdf:resource="http://purl.org/dc/dcmitype/StillImage"/>
    <dc:title/>
   </cc:Work>
  </rdf:RDF>
 </metadata>
 <rect width="512" height="512"/>
 <circle cx="256" cy="256" r="256" fill="#fff" stroke-width="1.0592"/>
 <g transform="scale(3.7795)" stroke-width=".26458" aria-label="SVG">
  <path d="m105.05 73.733v-4.2664l15.404-0.02481v13.494q-3.5471 2.8277-7.3174 4.2664-3.7703 1.4139-7.7391 1.4139-5.3578 0-9.7482-2.282-4.3656-2.3068-6.598-6.6477-2.2324-4.3408-2.2324-9.6986 0-5.3082 2.2076-9.8971 2.2324-4.6137 6.3996-6.8461 4.1672-2.2324 9.5994-2.2324 3.944 0 7.119 1.2898 3.1998 1.265 5.0106 3.5471 1.8107 2.282 2.7533 5.9531l-4.3408 1.1906q-0.81856-2.7781-2.034-4.3656t-3.4727-2.5301q-2.2572-0.96738-5.0105-0.96738-3.299 0-5.7051 1.017-2.4061 0.99219-3.8943 2.6293-1.4635 1.6371-2.282 3.5967-1.3891 3.3734-1.3891 7.3174 0 4.8617 1.6619 8.1359 1.6867 3.2742 4.8865 4.8617 3.1998 1.5875 6.7965 1.5875 3.1254 0 6.102-1.1906 2.9766-1.2154 4.5145-2.5797v-6.7717z"/>
  <path d="m64.49 87.996-14.089-36.364h5.209l9.4506 26.417q1.141 3.175 1.91 5.9531 0.84336-2.9766 1.9596-5.9531l9.8227-26.417h4.9113l-14.238 36.364z"/>
  <path d="m18.527 76.313 4.5393-0.39688q0.32246 2.7285 1.4883 4.4896 1.1906 1.7363 3.6711 2.8277 2.4805 1.0666 5.5811 1.0666 2.7533 0 4.8617-0.81856 2.1084-0.81855 3.1254-2.2324 1.0418-1.4387 1.0418-3.1254 0-1.7115-0.99219-2.9766-0.99219-1.2898-3.2742-2.158-1.4635-0.57051-6.474-1.7611-5.0105-1.2154-7.0197-2.282-2.6045-1.3643-3.8943-3.3734-1.265-2.034-1.265-4.5393 0-2.7533 1.5627-5.1346 1.5627-2.4061 4.5641-3.6463 3.0014-1.2402 6.6725-1.2402 4.0432 0 7.1189 1.3146 3.1006 1.2898 4.7625 3.8199t1.7859 5.7299l-4.6137 0.34726q-0.37207-3.4479-2.5301-5.209-2.1332-1.7611-6.3252-1.7611-4.3656 0-6.3748 1.6123-1.9844 1.5875-1.9844 3.8447 0 1.9596 1.4139 3.2246 1.3891 1.265 7.243 2.6045 5.8787 1.3146 8.0615 2.3068 3.175 1.4635 4.6881 3.7207 1.5131 2.2324 1.5131 5.1594 0 2.9021-1.6619 5.4818-1.6619 2.5549-4.7873 3.9936-3.1006 1.4139-6.9949 1.4139-4.9361 0-8.2848-1.4387-3.3238-1.4387-5.2338-4.316-1.8852-2.9021-1.9844-6.5484z"/>
 </g>
</svg>
